<svg width="24" height="24" viewBox="0 0 24 24" fill="none" xmlns="http://www.w3.org/2000/svg">
<path d="M12 8.75C11.138 8.75 10.3114 9.09241 9.7019 9.7019C9.09241 10.3114 8.75 11.138 8.75 12C8.75 12.862 9.09241 13.6886 9.7019 14.2981C10.3114 14.9076 11.138 15.25 12 15.25C12.862 15.25 13.6886 14.9076 14.2981 14.2981C14.9076 13.6886 15.25 12.862 15.25 12C15.25 11.138 14.9076 10.3114 14.2981 9.7019C13.6886 9.09241 12.862 8.75 12 8.75Z" fill="#E6E6E6"/>
<path fill-rule="evenodd" clip-rule="evenodd" d="M6.77 3.08202C10.246 2.69695 13.754 2.69695 17.23 3.08202C19.129 3.29402 20.66 4.78902 20.883 6.69502C21.2949 10.2197 21.2949 13.7803 20.883 17.305C20.66 19.211 19.129 20.706 17.231 20.919C13.7546 21.3042 10.2464 21.3042 6.77 20.919C4.871 20.706 3.34 19.211 3.117 17.306C2.70498 13.781 2.70498 10.22 3.117 6.69502C3.34 4.78902 4.871 3.29402 6.77 3.08202ZM17 6.00002C16.7348 6.00002 16.4804 6.10537 16.2929 6.29291C16.1054 6.48045 16 6.7348 16 7.00002C16 7.26523 16.1054 7.51959 16.2929 7.70712C16.4804 7.89466 16.7348 8.00002 17 8.00002C17.2652 8.00002 17.5196 7.89466 17.7071 7.70712C17.8946 7.51959 18 7.26523 18 7.00002C18 6.7348 17.8946 6.48045 17.7071 6.29291C17.5196 6.10537 17.2652 6.00002 17 6.00002ZM7.25 12C7.25 10.7402 7.75044 9.53206 8.64124 8.64126C9.53204 7.75046 10.7402 7.25002 12 7.25002C13.2598 7.25002 14.468 7.75046 15.3588 8.64126C16.2496 9.53206 16.75 10.7402 16.75 12C16.75 13.2598 16.2496 14.468 15.3588 15.3588C14.468 16.2496 13.2598 16.75 12 16.75C10.7402 16.75 9.53204 16.2496 8.64124 15.3588C7.75044 14.468 7.25 13.2598 7.25 12Z" fill="#E6E6E6"/>
</svg>
