<svg width="440" height="57" viewBox="0 0 440 57" fill="none" xmlns="http://www.w3.org/2000/svg">
<rect width="440" height="57" fill="#29292D"/>
<g clip-path="url(#clip0_774_16)">
<path fill-rule="evenodd" clip-rule="evenodd" d="M35.777 21.43C36.0241 21.326 36.2946 21.2901 36.5603 21.3261C36.826 21.3621 37.0772 21.4686 37.2877 21.6347C37.4982 21.8007 37.6604 22.0201 37.7574 22.27C37.8543 22.52 37.8825 22.7914 37.839 23.056L35.571 36.813C35.351 38.14 33.895 38.901 32.678 38.24C31.66 37.687 30.148 36.835 28.788 35.946C28.108 35.501 26.025 34.076 26.281 33.062C26.501 32.195 30.001 28.937 32.001 27C32.786 26.239 32.428 25.8 31.501 26.5C29.199 28.238 25.503 30.881 24.281 31.625C23.203 32.281 22.641 32.393 21.969 32.281C20.743 32.077 19.606 31.761 18.678 31.376C17.424 30.856 17.485 29.132 18.677 28.63L35.777 21.43Z" fill="#E6E6E6"/>
</g>
<defs>
<clipPath id="clip0_774_16">
<rect width="24" height="24" fill="white" transform="translate(16 17)"/>
</clipPath>
</defs>
</svg>
