<svg width="26" height="23" viewBox="0 0 26 23" fill="none" xmlns="http://www.w3.org/2000/svg">
<path d="M1.44445 23C1.03519 23 0.692375 22.816 0.416005 22.448C0.139635 22.08 0.000967943 21.6251 4.98083e-06 21.0833C-0.000957982 20.5415 0.137709 20.0866 0.416005 19.7186C0.694301 19.3506 1.03712 19.1666 1.44445 19.1666H24.5556C24.9648 19.1666 25.3081 19.3506 25.5854 19.7186C25.8628 20.0866 26.001 20.5415 26 21.0833C25.999 21.6251 25.8604 22.0806 25.584 22.4499C25.3076 22.8192 24.9648 23.0025 24.5556 23H1.44445ZM1.44445 13.4167C1.03519 13.4167 0.692375 13.2327 0.416005 12.8647C0.139635 12.4967 0.000967943 12.0418 4.98083e-06 11.5C-0.000957982 10.9582 0.137709 10.5033 0.416005 10.1353C0.694301 9.76732 1.03712 9.58332 1.44445 9.58332H24.5556C24.9648 9.58332 25.3081 9.76732 25.5854 10.1353C25.8628 10.5033 26.001 10.9582 26 11.5C25.999 12.0418 25.8604 12.4973 25.584 12.8666C25.3076 13.2358 24.9648 13.4192 24.5556 13.4167H1.44445ZM1.44445 3.83333C1.03519 3.83333 0.692375 3.64933 0.416005 3.28133C0.139635 2.91333 0.000967943 2.45844 4.98083e-06 1.91666C-0.000957982 1.37489 0.137709 0.919999 0.416005 0.552C0.694301 0.184 1.03712 0 1.44445 0H24.5556C24.9648 0 25.3081 0.184 25.5854 0.552C25.8628 0.919999 26.001 1.37489 26 1.91666C25.999 2.45844 25.8604 2.91397 25.584 3.28325C25.3076 3.65252 24.9648 3.83588 24.5556 3.83333H1.44445Z" fill="#EBEDF0"/>
</svg>
